<?xml version="1.0" encoding="utf-8"?>
<!-- Generator: Adobe Illustrator 24.1.1, SVG Export Plug-In . SVG Version: 6.00 Build 0)  -->
<svg version="1.1" id="Capa_1" xmlns="http://www.w3.org/2000/svg" xmlns:xlink="http://www.w3.org/1999/xlink" x="0px" y="0px"
	 viewBox="0 0 517 100" style="enable-background:new 0 0 517 100;" xml:space="preserve">
<style type="text/css">
	.st0{fill:#FF0000;}
	.st1{fill:#444444;}
</style>
<g>
	<g>
		<rect x="169.71" y="35.09" class="st0" width="10.35" height="31.34"/>
		<polygon class="st0" points="182.82,47.75 200.63,47.82 200.63,35.09 210.43,35.09 210.43,66.42 200.63,66.42 200.63,53.78 
			182.82,53.86 		"/>
		<path class="st0" d="M221.61,51.38c0,0-5.52,5.11-6.16,15.05h40.26v-7.67h-26.43c0,0,1.84-4.98,5.38-4.98l18.15-0.05v-6.49
			l-23.33,0.14c0,0,1.66-3.93,5.11-4.14l20.98-0.14l0.14-8.01h-26.43c0,0-12.15,4.63-12.77,16.29L221.61,51.38L221.61,51.38z"/>
		<path class="st0" d="M316.37,51.38c0,0-5.52,5.11-6.16,15.05h40.26v-7.67h-26.44c0,0,1.84-4.98,5.38-4.98l18.15-0.05v-6.49
			l-23.33,0.14c0,0,1.66-3.93,5.11-4.14l20.98-0.14l0.14-8.01h-26.43c0,0-12.15,4.63-12.77,16.29L316.37,51.38L316.37,51.38z"/>
		<path class="st0" d="M275.31,35.09v23.68c0,0,0,7.66,8.98,7.66h22.22v-7.66h-19.41c0,0-2.81,0-2.81-4.07v-19.6H275.31z"/>
		<path class="st0" d="M356.18,35.09l-0.14,31.34h9.39l-0.07-23.26h13.32c0,0,3.86,1.76,4.55,4.66h-14.77l0.07,5.95h11.18
			c0,0,4.83,2.71,7.59,12.65h10.21c0,0-1.29-8.42-7.09-15.05l6.9,0.14c0,0-5.13-15.73-16.31-16.42H356.18z"/>
		<polygon class="st0" points="260.54,35.09 260.47,66.5 269.93,66.42 269.93,35.16 		"/>
	</g>
	<g>
		<path class="st1" d="M122.37,44.61c0.18-1.13,0.29-2.27,0.55-3.37c0.78-3.34,2.31-6.31,4.61-8.86c0.76-0.85,1.63-1.61,2.46-2.39
			c0.17-0.16,0.39-0.27,0.63-0.35c-0.43,0.4-0.86,0.8-1.29,1.2c-3.17,2.97-5.29,6.56-6.1,10.83c-1.08,5.69,0.2,10.82,3.95,15.27
			c2.36,2.8,5.34,4.64,8.99,5.19c3.97,0.61,7.58-0.26,10.62-2.98c1.06-0.95,1.93-2.09,2.15-3.51c0.18-1.14,0.08-2.33,0.1-3.5
			c0-0.14-0.06-0.29-0.12-0.43c-0.18-0.36-0.41-0.43-0.71-0.17c-0.23,0.2-0.44,0.45-0.61,0.7c-1.05,1.47-2.25,2.8-3.9,3.6
			c-3.09,1.51-6.11,1.18-8.94-0.64c-2.76-1.78-4.16-4.44-4.61-7.64c-0.83-5.81,2.66-10.85,7.13-13.14c2.8-1.43,5.76-1.93,8.86-1.67
			c3.23,0.28,6.08,1.53,8.62,3.51c3.66,2.87,5.94,6.65,6.77,11.18c1.21,6.52-0.53,12.32-4.78,17.38c-2.47,2.93-5.57,5.03-9.11,6.48
			c-0.09,0.04-0.19,0.07-0.32,0.11c-0.1-0.38-0.39-0.3-0.65-0.26c-1.04,0.15-2.09,0.31-3.13,0.46c-0.22,0.03-0.44,0.04-0.68-0.03
			c0.57-0.15,1.14-0.29,1.71-0.45c4.37-1.17,8.11-3.38,11.1-6.79c2.6-2.97,4.24-6.41,4.73-10.33c0.75-6.01-0.99-11.22-5.36-15.46
			c-2.31-2.24-5.13-3.56-8.36-3.94c-4.24-0.5-7.96,0.7-11.01,3.69c-2.08,2.04-3.05,4.59-2.81,7.51c0.12,1.46,0.58,2.85,1.54,4.01
			c0.45,0.54,0.99,0.94,1.71,1.05c0.5,0.08,0.76-0.13,0.74-0.62c-0.02-0.5-0.12-1-0.19-1.5c-0.54-3.44,1.39-6.7,4.68-7.85
			c2.04-0.71,4.06-0.47,5.98,0.44c3.18,1.5,4.94,4.1,5.55,7.49c1.07,5.92-2.34,11.27-7.34,13.41c-6.14,2.63-11.86,1.61-16.95-2.65
			c-3.32-2.77-5.15-6.43-5.92-10.64c-0.13-0.7-0.19-1.4-0.29-2.11C122.37,46.1,122.37,45.35,122.37,44.61z M140.17,46.19
			c0,1.46,0.02,4.66,0.02,4.66l1.87-0.02c0,0,0-1.22,0-1.7c1.04,0,2.04,0,3.06,0c0,0.48,0.01,1.7,0.01,1.7s1.38,0,1.91,0
			c0-1.45-0.02-4.63-0.02-4.63l-1.92-0.02c0,0,0,1.08,0,1.6c-1.04,0-3.03,0-3.03,0l0.01-1.58C142.06,46.21,140.7,46.19,140.17,46.19
			z"/>
	</g>
</g>
</svg>
