<?xml version="1.0" encoding="utf-8"?>
<!-- Generator: Adobe Illustrator 24.1.1, SVG Export Plug-In . SVG Version: 6.00 Build 0)  -->
<svg version="1.1" id="Capa_1" xmlns="http://www.w3.org/2000/svg" xmlns:xlink="http://www.w3.org/1999/xlink" x="0px" y="0px"
	 viewBox="0 0 517 100" style="enable-background:new 0 0 517 100;" xml:space="preserve">
<style type="text/css">
	.st0{fill:#FF0000;}
	.st1{fill:#444444;}
</style>
<g>
	<g>
		<rect x="96.67" y="22.51" class="st0" width="18.73" height="56.7"/>
		<polygon class="st0" points="120.4,45.42 152.62,45.55 152.62,22.51 170.35,22.51 170.35,79.21 152.62,79.21 152.62,56.33 
			120.4,56.48 		"/>
		<path class="st0" d="M190.58,51.99c0,0-9.99,9.24-11.15,27.23h72.85V65.35h-47.83c0,0,3.33-9.02,9.74-9.02l32.85-0.09V44.49
			l-42.21,0.25c0,0,3-7.12,9.24-7.49L252.03,37l0.25-14.49h-47.83c0,0-21.98,8.37-23.1,29.47H190.58z"/>
		<path class="st0" d="M362.04,51.99c0,0-9.99,9.24-11.15,27.23h72.85V65.35H375.9c0,0,3.33-9.02,9.74-9.02l32.85-0.09V44.49
			l-42.21,0.25c0,0,3-7.12,9.24-7.49L423.48,37l0.25-14.49H375.9c0,0-21.98,8.37-23.1,29.47H362.04z"/>
		<path class="st0" d="M287.75,22.51v42.84c0,0,0,13.86,16.24,13.86h40.21V65.35h-35.13c0,0-5.08,0-5.08-7.37V22.51H287.75z"/>
		<path class="st0" d="M434.08,22.51l-0.25,56.7h16.99l-0.12-42.09h24.1c0,0,6.99,3.18,8.24,8.43h-26.73l0.12,10.77h20.23
			c0,0,8.74,4.9,13.74,22.89h18.48c0,0-2.33-15.24-12.82-27.23l12.49,0.25c0,0-9.28-28.47-29.51-29.72H434.08z"/>
		<polygon class="st0" points="261.02,22.51 260.9,79.34 278.01,79.21 278.01,22.64 		"/>
	</g>
	<g>
		<path class="st1" d="M11.02,39.73c0.32-2.04,0.52-4.1,0.99-6.1c1.41-6.04,4.18-11.42,8.34-16.04c1.38-1.53,2.95-2.91,4.45-4.33
			c0.3-0.29,0.7-0.49,1.14-0.63c-0.78,0.73-1.56,1.45-2.34,2.18c-5.74,5.38-9.57,11.87-11.04,19.6
			c-1.95,10.29,0.37,19.57,7.15,27.63c4.27,5.07,9.66,8.39,16.27,9.4c7.18,1.1,13.71-0.47,19.22-5.4c1.91-1.71,3.49-3.78,3.89-6.35
			c0.32-2.07,0.15-4.22,0.18-6.33c0-0.26-0.11-0.53-0.22-0.77c-0.32-0.65-0.74-0.77-1.28-0.3c-0.42,0.36-0.79,0.81-1.11,1.27
			c-1.9,2.66-4.07,5.06-7.05,6.51c-5.59,2.73-11.06,2.14-16.18-1.16c-4.99-3.22-7.52-8.04-8.34-13.83
			C23.59,34.56,29.9,25.45,38,21.3c5.06-2.59,10.42-3.5,16.03-3.02c5.85,0.5,11.01,2.76,15.6,6.35
			c6.63,5.19,10.74,12.03,12.25,20.23c2.19,11.8-0.95,22.29-8.65,31.44c-4.47,5.31-10.07,9.11-16.48,11.72
			c-0.17,0.07-0.35,0.12-0.58,0.19c-0.18-0.69-0.71-0.54-1.18-0.47c-1.89,0.27-3.78,0.56-5.67,0.84c-0.4,0.06-0.8,0.08-1.23-0.05
			c1.03-0.27,2.07-0.53,3.1-0.81c7.91-2.11,14.68-6.11,20.08-12.28c4.7-5.37,7.67-11.6,8.56-18.7c1.36-10.88-1.8-20.31-9.7-27.98
			c-4.18-4.06-9.29-6.44-15.12-7.13c-7.68-0.91-14.41,1.27-19.93,6.68C31.32,32,29.57,36.61,30,41.9c0.22,2.65,1.05,5.15,2.78,7.25
			c0.81,0.98,1.8,1.7,3.09,1.9c0.9,0.14,1.38-0.23,1.34-1.13c-0.04-0.91-0.21-1.81-0.35-2.71c-0.97-6.23,2.52-12.13,8.47-14.2
			c3.7-1.29,7.34-0.85,10.82,0.79c5.76,2.71,8.94,7.42,10.04,13.55c1.93,10.71-4.24,20.39-13.29,24.27
			c-11.11,4.76-21.46,2.92-30.67-4.79c-6-5.02-9.31-11.64-10.71-19.25c-0.23-1.26-0.35-2.54-0.52-3.81
			C11.02,42.43,11.02,41.08,11.02,39.73z M43.23,42.6c0,2.64,0.03,8.43,0.03,8.43L46.64,51c0,0,0-2.21,0-3.08c1.89,0,3.69,0,5.53,0
			c0,0.86,0.01,3.07,0.01,3.07s2.5,0,3.45,0c0-2.63-0.03-8.37-0.03-8.37l-3.47-0.03c0,0,0,1.96,0,2.9c-1.88,0-5.49,0-5.49,0
			l0.01-2.86C46.65,42.63,44.19,42.6,43.23,42.6z"/>
	</g>
</g>
</svg>
